<svg xmlns="http://www.w3.org/2000/svg" xmlns:xlink="http://www.w3.org/1999/xlink" xmlns:lucid="lucid" width="1710.75" height="1006"><g transform="translate(-29.249999999999986 -160)" lucid:page-tab-id="0_0"><path d="M0 0h1760v1360H0z" fill="#fff"/><path d="M208 360c17.67 0 32 17.9 32 40s-14.33 40-32 40h-96c-17.67 0-32-17.9-32-40s14.33-40 32-40z" stroke="#000" stroke-width="2" fill="#fff"/><use xlink:href="#a" transform="matrix(1,0,0,1,85,365) translate(57.025 38.4625)"/><path d="M289.55 401H242v-2h47.55zm90.95 0h-30.05v-2h30.05z"/><path d="M242.03 401h-1.1l.07-1-.03-1h1.06zM395.76 400l-14.26 4.64v-9.28z"/><path d="M399 400l-18.5 6v-12zm-16.5 3.26l10.03-3.26-10.03-3.26z"/><use xlink:href="#b" transform="matrix(1,0,0,1,289.55031110926376,389.2) translate(0 14.4)"/><path d="M612.27 401H562v-2h50.27zm107.56 0h-32.76v-2h32.76z"/><path d="M562.03 401H561v-2h1.03zM735.1 400l-14.27 4.64v-9.28z"/><path d="M738.33 400l-18.5 6v-12zm-16.5 3.26l10.03-3.26-10.03-3.26z"/><use xlink:href="#c" transform="matrix(1,0,0,1,612.2666666666668,389.2) translate(0 14.4)"/><path d="M1128 360c17.67 0 32 17.9 32 40s-14.33 40-32 40h-96c-17.67 0-32-17.9-32-40s14.33-40 32-40z" stroke="#000" stroke-width="2" fill="#fff"/><use xlink:href="#d" transform="matrix(1,0,0,1,1005,365) translate(35.555 16.5875)"/><use xlink:href="#e" transform="matrix(1,0,0,1,1005,365) translate(78.505 16.5875)"/><use xlink:href="#f" transform="matrix(1,0,0,1,1005,365) translate(13.024999999999999 38.1875)"/><use xlink:href="#g" transform="matrix(1,0,0,1,1005,365) translate(71.025 38.1875)"/><use xlink:href="#h" transform="matrix(1,0,0,1,1005,365) translate(96.975 38.1875)"/><use xlink:href="#i" transform="matrix(1,0,0,1,1005,365) translate(11.854999999999999 59.7875)"/><use xlink:href="#j" transform="matrix(1,0,0,1,1005,365) translate(73.805 59.7875)"/><use xlink:href="#k" transform="matrix(1,0,0,1,1005,365) translate(89.305 59.7875)"/><path d="M820 340l80 60-80 60-80-60z" stroke="#000" stroke-width="2" fill="#fff"/><use xlink:href="#l" transform="matrix(1,0,0,1,745,345) translate(47.55500000000001 48.775)"/><use xlink:href="#m" transform="matrix(1,0,0,1,745,345) translate(82.455 48.775)"/><use xlink:href="#n" transform="matrix(1,0,0,1,745,345) translate(35.58 70.375)"/><path d="M821 337.75h-2v-19.52h2zm0-41.12h-2V279.5h2z"/><path d="M821 339.5l-1-.75-1 .75v-1.78h2zM824.64 278.5h-9.28l4.64-14.26z"/><path d="M826 279.5h-12l6-18.5zm-9.26-2h6.52L820 267.47z"/><use xlink:href="#o" transform="matrix(1,0,0,1,805.325,296.6311082928517) translate(0 14.4)"/><path d="M932.67 401h-30v-2h30zm47.83 0h-24.88v-2h24.88z"/><path d="M902.7 401h-2.37l1.34-1-1.34-1h2.36zM995.76 400l-14.26 4.64v-9.28z"/><path d="M999 400l-18.5 6v-12zm-16.5 3.26l10.03-3.26-10.03-3.26z"/><use xlink:href="#p" transform="matrix(1,0,0,1,932.6655975357796,389.2) translate(0 14.4)"/><path d="M868 180c17.67 0 32 17.9 32 40s-14.33 40-32 40h-96c-17.67 0-32-17.9-32-40s14.33-40 32-40z" stroke="#000" stroke-width="2" fill="#fff"/><use xlink:href="#l" transform="matrix(1,0,0,1,745,185) translate(11.575000000000003 27.525)"/><use xlink:href="#q" transform="matrix(1,0,0,1,745,185) translate(46.475 27.525)"/><use xlink:href="#r" transform="matrix(1,0,0,1,745,185) translate(85.425 27.525)"/><use xlink:href="#g" transform="matrix(1,0,0,1,745,185) translate(37.599999999999994 49.125)"/><use xlink:href="#k" transform="matrix(1,0,0,1,745,185) translate(63.55 49.125)"/><path d="M80 800h160v120H80z" stroke="#000" stroke-width="2" fill="#fff"/><use xlink:href="#s" transform="matrix(1,0,0,1,92,812) translate(17.549999999999997 20.4)"/><use xlink:href="#h" transform="matrix(1,0,0,1,92,812) translate(78.45 20.4)"/><use xlink:href="#t" transform="matrix(1,0,0,1,92,812) translate(15.049999999999997 42)"/><use xlink:href="#u" transform="matrix(1,0,0,1,92,812) translate(68 42)"/><use xlink:href="#v" transform="matrix(1,0,0,1,92,812) translate(85 42)"/><use xlink:href="#w" transform="matrix(1,0,0,1,92,812) translate(46.025 63.6)"/><use xlink:href="#x" transform="matrix(1,0,0,1,92,812) translate(24.049999999999997 85.20000000000002)"/><path d="M400 340h160v120H400z" stroke="#000" stroke-width="2" fill="#fff"/><use xlink:href="#y" transform="matrix(1,0,0,1,412,352) translate(1.0749999999999886 41.4)"/><use xlink:href="#z" transform="matrix(1,0,0,1,412,352) translate(86.07499999999999 41.4)"/><use xlink:href="#g" transform="matrix(1,0,0,1,412,352) translate(6.074999999999996 63)"/><use xlink:href="#A" transform="matrix(1,0,0,1,412,352) translate(32.02499999999999 63)"/><use xlink:href="#B" transform="matrix(1,0,0,1,412,352) translate(72.975 63)"/><path d="M208 1040c17.67 0 32 17.9 32 40s-14.33 40-32 40h-96c-17.67 0-32-17.9-32-40s14.33-40 32-40z" stroke="#000" stroke-width="2" fill="#fff"/><use xlink:href="#C" transform="matrix(1,0,0,1,85,1045) translate(5.125 38.4625)"/><use xlink:href="#D" transform="matrix(1,0,0,1,85,1045) translate(89.97500000000001 38.4625)"/><path d="M161 1020.5h-2v-29.7h2zm0-51.3h-2V922h2z"/><path d="M161 922.03h-2V921h2zM160 1035.76l-4.64-14.26h9.28z"/><path d="M160 1039l-6-18.5h12zm-3.26-16.5l3.26 10.03 3.26-10.03z"/><use xlink:href="#E" transform="matrix(1,0,0,1,40.249999999999986,969.2) translate(0 14.4)"/><use xlink:href="#F" transform="matrix(1,0,0,1,40.249999999999986,969.2) translate(64.85 14.4)"/><use xlink:href="#G" transform="matrix(1,0,0,1,40.249999999999986,969.2) translate(101.75 14.4)"/><use xlink:href="#H" transform="matrix(1,0,0,1,40.249999999999986,969.2) translate(184.60000000000002 14.4)"/><path d="M303 1081h-61v-2h61zm77.5 0H337v-2h43.5z"/><path d="M242.03 1081h-1.1l.07-1-.03-1h1.06zM395.76 1080l-14.26 4.64v-9.28z"/><path d="M399 1080l-18.5 6v-12zm-16.5 3.26l10.03-3.26-10.03-3.26z"/><use xlink:href="#I" transform="matrix(1,0,0,1,303.00031110926375,1069.2) translate(0 14.4)"/><path d="M400 340h160v120H400z" stroke="#000" stroke-width="2" fill="#fff"/><use xlink:href="#y" transform="matrix(1,0,0,1,412,352) translate(1.0749999999999886 41.4)"/><use xlink:href="#z" transform="matrix(1,0,0,1,412,352) translate(86.07499999999999 41.4)"/><use xlink:href="#g" transform="matrix(1,0,0,1,412,352) translate(6.074999999999996 63)"/><use xlink:href="#A" transform="matrix(1,0,0,1,412,352) translate(32.02499999999999 63)"/><use xlink:href="#B" transform="matrix(1,0,0,1,412,352) translate(72.975 63)"/><path d="M400 340h160v120H400z" stroke="#000" stroke-width="2" fill="#fff"/><use xlink:href="#y" transform="matrix(1,0,0,1,412,352) translate(1.0749999999999886 41.4)"/><use xlink:href="#z" transform="matrix(1,0,0,1,412,352) translate(86.07499999999999 41.4)"/><use xlink:href="#g" transform="matrix(1,0,0,1,412,352) translate(6.074999999999996 63)"/><use xlink:href="#A" transform="matrix(1,0,0,1,412,352) translate(32.02499999999999 63)"/><use xlink:href="#B" transform="matrix(1,0,0,1,412,352) translate(72.975 63)"/><path d="M400 1014h160v132H400z" stroke="#000" stroke-width="2" fill="#fff"/><use xlink:href="#J" transform="matrix(1,0,0,1,412,1026) translate(3.049999999999997 14.4)"/><use xlink:href="#K" transform="matrix(1,0,0,1,412,1026) translate(44.05 14.4)"/><use xlink:href="#L" transform="matrix(1,0,0,1,412,1026) translate(85.05 14.4)"/><use xlink:href="#M" transform="matrix(1,0,0,1,412,1026) translate(106 14.4)"/><use xlink:href="#N" transform="matrix(1,0,0,1,412,1026) translate(15.049999999999997 36)"/><use xlink:href="#O" transform="matrix(1,0,0,1,412,1026) translate(39.05 36)"/><use xlink:href="#P" transform="matrix(1,0,0,1,412,1026) translate(32.6 57.6)"/><use xlink:href="#Q" transform="matrix(1,0,0,1,412,1026) translate(74.45 57.6)"/><use xlink:href="#R" transform="matrix(1,0,0,1,412,1026) translate(29.074999999999996 79.20000000000002)"/><use xlink:href="#S" transform="matrix(1,0,0,1,412,1026) translate(6.074999999999996 100.80000000000001)"/><use xlink:href="#T" transform="matrix(1,0,0,1,412,1026) translate(65.975 100.80000000000001)"/><path d="M820 340l80 60-80 60-80-60z" stroke="#000" stroke-width="2" fill="#fff"/><use xlink:href="#l" transform="matrix(1,0,0,1,745,345) translate(39.58 48.775)"/><use xlink:href="#e" transform="matrix(1,0,0,1,745,345) translate(74.47999999999999 48.775)"/><use xlink:href="#U" transform="matrix(1,0,0,1,745,345) translate(41.53 70.375)"/><path d="M820 1020l80 60-80 60-80-60z" stroke="#000" stroke-width="2" fill="#fff"/><use xlink:href="#V" transform="matrix(1,0,0,1,745,1025) translate(22.029999999999994 59.0875)"/><use xlink:href="#W" transform="matrix(1,0,0,1,745,1025) translate(67.03 59.0875)"/><path d="M600.22 1081H562v-2h38.22zm119.6 0h-20.7v-2h20.7z"/><path d="M562.03 1081H561v-2h1.03zM735.1 1080l-14.27 4.64v-9.28z"/><path d="M738.33 1080l-18.5 6v-12zm-16.5 3.26l10.03-3.26-10.03-3.26z"/><use xlink:href="#X" transform="matrix(1,0,0,1,600.2166666666667,1069.2) translate(0 14.4)"/><use xlink:href="#Y" transform="matrix(1,0,0,1,600.2166666666667,1069.2) translate(42.95 14.4)"/><use xlink:href="#Z" transform="matrix(1,0,0,1,600.2166666666667,1069.2) translate(57.95 14.4)"/><path d="M821 1017.75h-2v-37.68h2zm0-59.28h-2V926.7h2z"/><path d="M821 1019.5l-1-.75-1 .75v-1.78h2zM824.64 925.7h-9.28l4.64-14.26z"/><path d="M826 926.7h-12l6-18.5zm-9.26-2h6.52L820 914.67z"/><use xlink:href="#o" transform="matrix(1,0,0,1,805.325,958.4708307100799) translate(0 14.4)"/><path d="M892 789.2c26.5 0 48 26.42 48 59s-21.5 59-48 59H748c-26.5 0-48-26.42-48-59s21.5-59 48-59z" stroke="#000" stroke-width="2" fill="#fff"/><g><use xlink:href="#aa" transform="matrix(1,0,0,1,705,794.2) translate(22.174999999999997 58.68125)"/><use xlink:href="#P" transform="matrix(1,0,0,1,705,794.2) translate(65.175 58.68125)"/><use xlink:href="#ab" transform="matrix(1,0,0,1,705,794.2) translate(107.02499999999999 58.68125)"/><use xlink:href="#ac" transform="matrix(1,0,0,1,705,794.2) translate(132.975 58.68125)"/><use xlink:href="#ad" transform="matrix(1,0,0,1,705,794.2) translate(171.925 58.68125)"/></g><path d="M976.82 849.2H942v-2h34.82zm163 0h-17.3v-2h17.3z"/><path d="M942.03 849.2h-1.07l.04-1-.02-1h1.05zM1155.1 848.2l-14.27 4.64v-9.28z"/><path d="M1158.33 848.2l-18.5 6v-12zm-16.5 3.26l10.03-3.26-10.03-3.26z"/><g><use xlink:href="#X" transform="matrix(1,0,0,1,976.8167947055894,837.4000000000001) translate(0 14.4)"/><use xlink:href="#ae" transform="matrix(1,0,0,1,976.8167947055894,837.4000000000001) translate(42.95 14.4)"/><use xlink:href="#af" transform="matrix(1,0,0,1,976.8167947055894,837.4000000000001) translate(87.80000000000001 14.4)"/></g><path d="M1240 788.2l80 60-80 60-80-60z" stroke="#000" stroke-width="2" fill="#fff"/><g><use xlink:href="#ag" transform="matrix(1,0,0,1,1165,793.2) translate(19.555 59.0875)"/><use xlink:href="#ah" transform="matrix(1,0,0,1,1165,793.2) translate(64.555 59.0875)"/></g><path d="M1241 785.95h-2v-24.22h2zm0-45.82h-2V715.9h2z"/><path d="M1241 787.7l-1-.75-1 .75v-1.78h2zM1244.64 714.9h-9.28l4.64-14.26z"/><path d="M1246 715.9h-12l6-18.5zm-9.26-2h6.52l-3.26-10.03z"/><g><use xlink:href="#o" transform="matrix(1,0,0,1,1225.325,740.1320441210722) translate(0 14.4)"/></g><path d="M1312 600c26.5 0 48 21.58 48 48.2 0 26.62-21.5 48.2-48 48.2h-144c-26.5 0-48-21.58-48-48.2 0-26.62 21.5-48.2 48-48.2z" stroke="#000" stroke-width="2" fill="#fff"/><g><use xlink:href="#ai" transform="matrix(1,0,0,1,1125,605) translate(22.679999999999986 25.275)"/><use xlink:href="#aj" transform="matrix(1,0,0,1,1125,605) translate(58.679999999999986 25.275)"/><use xlink:href="#ak" transform="matrix(1,0,0,1,1125,605) translate(100.52999999999999 25.275)"/><use xlink:href="#al" transform="matrix(1,0,0,1,1125,605) translate(160.38 25.275)"/><use xlink:href="#am" transform="matrix(1,0,0,1,1125,605) translate(180.38 25.275)"/><use xlink:href="#an" transform="matrix(1,0,0,1,1125,605) translate(1.6500000000000057 46.875)"/><use xlink:href="#u" transform="matrix(1,0,0,1,1125,605) translate(64.60000000000001 46.875)"/><use xlink:href="#ao" transform="matrix(1,0,0,1,1125,605) translate(81.60000000000001 46.875)"/><use xlink:href="#aj" transform="matrix(1,0,0,1,1125,605) translate(124.55000000000001 46.875)"/><use xlink:href="#g" transform="matrix(1,0,0,1,1125,605) translate(166.4 46.875)"/><use xlink:href="#ap" transform="matrix(1,0,0,1,1125,605) translate(192.35 46.875)"/><use xlink:href="#aq" transform="matrix(1,0,0,1,1125,605) translate(86.03 68.47500000000001)"/></g><path d="M1368.86 849.2h-46.2v-2h46.2zm51.64 0h-28.7v-2h28.7z"/><path d="M1322.7 849.2h-2.37l1.34-1-1.34-1h2.36zM1435.76 848.2l-14.26 4.64v-9.28z"/><path d="M1439 848.2l-18.5 6v-12zm-16.5 3.26l10.03-3.26-10.03-3.26z"/><g><use xlink:href="#p" transform="matrix(1,0,0,1,1368.8583197289438,837.4000000000001) translate(0 14.4)"/></g><path d="M1616 800c24.3 0 44 21.58 44 48.2 0 26.62-19.7 48.2-44 48.2h-132c-24.3 0-44-21.58-44-48.2 0-26.62 19.7-48.2 44-48.2z" stroke="#000" stroke-width="2" fill="#fff"/><g><use xlink:href="#ai" transform="matrix(1,0,0,1,1445,805) translate(8.154999999999996 25.275)"/><use xlink:href="#aj" transform="matrix(1,0,0,1,1445,805) translate(44.154999999999994 25.275)"/><use xlink:href="#ak" transform="matrix(1,0,0,1,1445,805) translate(86.005 25.275)"/><use xlink:href="#al" transform="matrix(1,0,0,1,1445,805) translate(145.85500000000002 25.275)"/><use xlink:href="#ap" transform="matrix(1,0,0,1,1445,805) translate(165.85500000000002 25.275)"/><use xlink:href="#an" transform="matrix(1,0,0,1,1445,805) translate(1.6500000000000057 46.875)"/><use xlink:href="#ar" transform="matrix(1,0,0,1,1445,805) translate(64.60000000000001 46.875)"/><use xlink:href="#as" transform="matrix(1,0,0,1,1445,805) translate(99.60000000000001 46.875)"/><use xlink:href="#aj" transform="matrix(1,0,0,1,1445,805) translate(151.5 46.875)"/><use xlink:href="#at" transform="matrix(1,0,0,1,1445,805) translate(193.35 46.875)"/><use xlink:href="#au" transform="matrix(1,0,0,1,1445,805) translate(60.055 68.47500000000001)"/><use xlink:href="#aq" transform="matrix(1,0,0,1,1445,805) translate(92.005 68.47500000000001)"/></g><path d="M1003.86 1081h-101.2v-2h101.2zm106.64 0h-83.7v-2h83.7z"/><path d="M902.7 1081h-2.37l1.34-1-1.34-1h2.36zM1125.76 1080l-14.26 4.64v-9.28z"/><path d="M1129 1080l-18.5 6v-12zm-16.5 3.26l10.03-3.26-10.03-3.26z"/><g><use xlink:href="#p" transform="matrix(1,0,0,1,1003.8583197289437,1069.2) translate(0 14.4)"/></g><path d="M1306 1031.8c24.3 0 44 21.58 44 48.2 0 26.62-19.7 48.2-44 48.2h-132c-24.3 0-44-21.58-44-48.2 0-26.62 19.7-48.2 44-48.2z" stroke="#000" stroke-width="2" fill="#fff"/><g><use xlink:href="#av" transform="matrix(1,0,0,1,1135,1036.8) translate(41.605 25.275)"/><use xlink:href="#aw" transform="matrix(1,0,0,1,1135,1036.8) translate(83.455 25.275)"/><use xlink:href="#ax" transform="matrix(1,0,0,1,1135,1036.8) translate(139.405 25.275)"/><use xlink:href="#ay" transform="matrix(1,0,0,1,1135,1036.8) translate(6.6499999999999915 46.875)"/><use xlink:href="#az" transform="matrix(1,0,0,1,1135,1036.8) translate(87.45 46.875)"/><use xlink:href="#aA" transform="matrix(1,0,0,1,1135,1036.8) translate(135.45 46.875)"/><use xlink:href="#aB" transform="matrix(1,0,0,1,1135,1036.8) translate(169.45 46.875)"/><use xlink:href="#aC" transform="matrix(1,0,0,1,1135,1036.8) translate(27.029999999999994 68.47500000000001)"/><use xlink:href="#aD" transform="matrix(1,0,0,1,1135,1036.8) translate(82.97999999999999 68.47500000000001)"/><use xlink:href="#aE" transform="matrix(1,0,0,1,1135,1036.8) translate(127.98 68.47500000000001)"/></g><path d="M1320 340l80 60-80 60-80-60z" stroke="#000" stroke-width="2" fill="#fff"/><g><use xlink:href="#l" transform="matrix(1,0,0,1,1245,345) translate(37.55500000000001 48.775)"/><use xlink:href="#h" transform="matrix(1,0,0,1,1245,345) translate(72.455 48.775)"/><use xlink:href="#U" transform="matrix(1,0,0,1,1245,345) translate(41.53 70.375)"/></g><path d="M1162 400h57.83" stroke="#000" stroke-width="2" fill="none"/><path d="M1162.03 401h-1.1l.07-1-.03-1h1.06z"/><path d="M1235.1 400l-14.27 4.64v-9.28z" stroke="#000" stroke-width="2"/><path d="M1321 337.75h-2V315.9h2zm0-43.46h-2v-14.8h2z"/><path d="M1321 339.5l-1-.75-1 .75v-1.78h2zM1324.64 278.5h-9.28l4.64-14.26z"/><path d="M1326 279.5h-12l6-18.5zm-9.26-2h6.52l-3.26-10.03z"/><g><use xlink:href="#o" transform="matrix(1,0,0,1,1305.325,294.2885868178563) translate(0 14.4)"/></g><path d="M1431.65 401h-28.98v-2h28.98zm48.85 0h-25.9v-2h25.9z"/><path d="M1402.7 401h-2.37l1.34-1-1.34-1h2.36zM1495.76 400l-14.26 4.64v-9.28z"/><path d="M1499 400l-18.5 6v-12zm-16.5 3.26l10.03-3.26-10.03-3.26z"/><g><use xlink:href="#p" transform="matrix(1,0,0,1,1431.6471968502542,389.2) translate(0 14.4)"/></g><path d="M1676 351.8c24.3 0 44 21.58 44 48.2 0 26.62-19.7 48.2-44 48.2h-132c-24.3 0-44-21.58-44-48.2 0-26.62 19.7-48.2 44-48.2z" stroke="#000" stroke-width="2" fill="#fff"/><g><use xlink:href="#aF" transform="matrix(1,0,0,1,1505,356.8) translate(11.699999999999989 36.15)"/><use xlink:href="#aG" transform="matrix(1,0,0,1,1505,356.8) translate(51.94999999999999 36.15)"/><use xlink:href="#aH" transform="matrix(1,0,0,1,1505,356.8) translate(89.85 36.15)"/><use xlink:href="#aI" transform="matrix(1,0,0,1,1505,356.8) translate(162.35 36.15)"/><use xlink:href="#aJ" transform="matrix(1,0,0,1,1505,356.8) translate(16.625 57.75)"/><use xlink:href="#g" transform="matrix(1,0,0,1,1505,356.8) translate(118.575 57.75)"/><use xlink:href="#k" transform="matrix(1,0,0,1,1505,356.8) translate(144.525 57.75)"/></g><path d="M1368 180c17.67 0 32 17.9 32 40s-14.33 40-32 40h-96c-17.67 0-32-17.9-32-40s14.33-40 32-40z" stroke="#000" stroke-width="2" fill="#fff"/><g><use xlink:href="#l" transform="matrix(1,0,0,1,1245,185) translate(6.574999999999989 27.525)"/><use xlink:href="#aK" transform="matrix(1,0,0,1,1245,185) translate(41.47499999999999 27.525)"/><use xlink:href="#aL" transform="matrix(1,0,0,1,1245,185) translate(86.475 27.525)"/><use xlink:href="#g" transform="matrix(1,0,0,1,1245,185) translate(37.599999999999994 49.125)"/><use xlink:href="#k" transform="matrix(1,0,0,1,1245,185) translate(63.55 49.125)"/></g><defs><path d="M30-248c87 1 191-15 191 75 0 78-77 80-158 76V0H30v-248zm33 125c57 0 124 11 124-50 0-59-68-47-124-48v98" id="aM"/><path d="M100-194c62-1 85 37 85 99 1 63-27 99-86 99S16-35 15-95c0-66 28-99 85-99zM99-20c44 1 53-31 53-75 0-43-8-75-51-75s-53 32-53 75 10 74 51 75" id="aN"/><path d="M24 0v-261h32V0H24" id="aO"/><g id="a"><use transform="matrix(0.05,0,0,0.05,0,0)" xlink:href="#aM"/><use transform="matrix(0.05,0,0,0.05,12,0)" xlink:href="#aN"/><use transform="matrix(0.05,0,0,0.05,22,0)" xlink:href="#aN"/><use transform="matrix(0.05,0,0,0.05,32,0)" xlink:href="#aO"/></g><path d="M30-248c118-7 216 8 213 122C240-48 200 0 122 0H30v-248zM63-27c89 8 146-16 146-99s-60-101-146-95v194" id="aP"/><path d="M100-194c63 0 86 42 84 106H49c0 40 14 67 53 68 26 1 43-12 49-29l28 8c-11 28-37 45-77 45C44 4 14-33 15-96c1-61 26-98 85-98zm52 81c6-60-76-77-97-28-3 7-6 17-6 28h103" id="aQ"/><path d="M115-194c55 1 70 41 70 98S169 2 115 4C84 4 66-9 55-30l1 105H24l-1-265h31l2 30c10-21 28-34 59-34zm-8 174c40 0 45-34 45-75s-6-73-45-74c-42 0-51 32-51 76 0 43 10 73 51 73" id="aR"/><path d="M135-143c-3-34-86-38-87 0 15 53 115 12 119 90S17 21 10-45l28-5c4 36 97 45 98 0-10-56-113-15-118-90-4-57 82-63 122-42 12 7 21 19 24 35" id="aS"/><path d="M24-231v-30h32v30H24zM24 0v-190h32V0H24" id="aT"/><path d="M59-47c-2 24 18 29 38 22v24C64 9 27 4 27-40v-127H5v-23h24l9-43h21v43h35v23H59v120" id="aU"/><g id="b"><use transform="matrix(0.05,0,0,0.05,0,0)" xlink:href="#aP"/><use transform="matrix(0.05,0,0,0.05,12.950000000000001,0)" xlink:href="#aQ"/><use transform="matrix(0.05,0,0,0.05,22.950000000000003,0)" xlink:href="#aR"/><use transform="matrix(0.05,0,0,0.05,32.95,0)" xlink:href="#aN"/><use transform="matrix(0.05,0,0,0.05,42.95,0)" xlink:href="#aS"/><use transform="matrix(0.05,0,0,0.05,51.95,0)" xlink:href="#aT"/><use transform="matrix(0.05,0,0,0.05,55.900000000000006,0)" xlink:href="#aU"/></g><path d="M266 0h-40l-56-210L115 0H75L2-248h35L96-30l15-64 43-154h32l59 218 59-218h35" id="aV"/><path d="M106-169C34-169 62-67 57 0H25v-261h32l-1 103c12-21 28-36 61-36 89 0 53 116 60 194h-32v-121c2-32-8-49-39-48" id="aW"/><path d="M85-194c31 0 48 13 60 33l-1-100h32l1 261h-30c-2-10 0-23-3-31C134-8 116 4 85 4 32 4 16-35 15-94c0-66 23-100 70-100zm9 24c-40 0-46 34-46 75 0 40 6 74 45 74 42 0 51-32 51-76 0-42-9-74-50-73" id="aX"/><path d="M114-163C36-179 61-72 57 0H25l-1-190h30c1 12-1 29 2 39 6-27 23-49 58-41v29" id="aY"/><path d="M141-36C126-15 110 5 73 4 37 3 15-17 15-53c-1-64 63-63 125-63 3-35-9-54-41-54-24 1-41 7-42 31l-33-3c5-37 33-52 76-52 45 0 72 20 72 64v82c-1 20 7 32 28 27v20c-31 9-61-2-59-35zM48-53c0 20 12 33 32 33 41-3 63-29 60-74-43 2-92-5-92 41" id="aZ"/><path d="M206 0h-36l-40-164L89 0H53L-1-190h32L70-26l43-164h34l41 164 42-164h31" id="ba"/><g id="c"><use transform="matrix(0.05,0,0,0.05,0,0)" xlink:href="#aV"/><use transform="matrix(0.05,0,0,0.05,16.95,0)" xlink:href="#aT"/><use transform="matrix(0.05,0,0,0.05,20.9,0)" xlink:href="#aU"/><use transform="matrix(0.05,0,0,0.05,25.899999999999995,0)" xlink:href="#aW"/><use transform="matrix(0.05,0,0,0.05,35.9,0)" xlink:href="#aX"/><use transform="matrix(0.05,0,0,0.05,45.9,0)" xlink:href="#aY"/><use transform="matrix(0.05,0,0,0.05,51.85,0)" xlink:href="#aZ"/><use transform="matrix(0.05,0,0,0.05,61.85,0)" xlink:href="#ba"/></g><path d="M160-131c35 5 61 23 61 61C221 17 115-2 30 0v-248c76 3 177-17 177 60 0 33-19 50-47 57zm-97-11c50-1 110 9 110-42 0-47-63-36-110-37v79zm0 115c55-2 124 14 124-45 0-56-70-42-124-44v89" id="bb"/><path d="M84 4C-5 8 30-112 23-190h32v120c0 31 7 50 39 49 72-2 45-101 50-169h31l1 190h-30c-1-10 1-25-2-33-11 22-28 36-60 37" id="bc"/><path d="M117-194c89-4 53 116 60 194h-32v-121c0-31-8-49-39-48C34-167 62-67 57 0H25l-1-190h30c1 10-1 24 2 32 11-22 29-35 61-36" id="bd"/><g id="d"><use transform="matrix(0.05,0,0,0.05,0,0)" xlink:href="#bb"/><use transform="matrix(0.05,0,0,0.05,12,0)" xlink:href="#bc"/><use transform="matrix(0.05,0,0,0.05,22,0)" xlink:href="#aY"/><use transform="matrix(0.05,0,0,0.05,27.950000000000003,0)" xlink:href="#bd"/></g><g id="e"><use transform="matrix(0.05,0,0,0.05,0,0)" xlink:href="#aM"/><use transform="matrix(0.05,0,0,0.05,12,0)" xlink:href="#aN"/><use transform="matrix(0.05,0,0,0.05,22,0)" xlink:href="#aN"/><use transform="matrix(0.05,0,0,0.05,32,0)" xlink:href="#aO"/></g><path d="M143 0L79-87 56-68V0H24v-261h32v163l83-92h37l-77 82L181 0h-38" id="be"/><g id="f"><use transform="matrix(0.05,0,0,0.05,0,0)" xlink:href="#aU"/><use transform="matrix(0.05,0,0,0.05,5,0)" xlink:href="#aN"/><use transform="matrix(0.05,0,0,0.05,15,0)" xlink:href="#be"/><use transform="matrix(0.05,0,0,0.05,24,0)" xlink:href="#aQ"/><use transform="matrix(0.05,0,0,0.05,34,0)" xlink:href="#bd"/><use transform="matrix(0.05,0,0,0.05,44,0)" xlink:href="#aS"/></g><path d="M101-234c-31-9-42 10-38 44h38v23H63V0H32v-167H5v-23h27c-7-52 17-82 69-68v24" id="bf"/><g id="g"><use transform="matrix(0.05,0,0,0.05,0,0)" xlink:href="#bf"/><use transform="matrix(0.05,0,0,0.05,5,0)" xlink:href="#aN"/><use transform="matrix(0.05,0,0,0.05,15,0)" xlink:href="#aY"/></g><path d="M30 0v-248h33v221h125V0H30" id="bg"/><g id="h"><use transform="matrix(0.05,0,0,0.05,0,0)" xlink:href="#bg"/><use transform="matrix(0.05,0,0,0.05,10,0)" xlink:href="#aN"/><use transform="matrix(0.05,0,0,0.05,20,0)" xlink:href="#aZ"/><use transform="matrix(0.05,0,0,0.05,30,0)" xlink:href="#bd"/></g><path d="M127-220V0H93v-220H8v-28h204v28h-85" id="bh"/><g id="i"><use transform="matrix(0.05,0,0,0.05,0,0)" xlink:href="#bh"/><use transform="matrix(0.05,0,0,0.05,8.950000000000001,0)" xlink:href="#aN"/><use transform="matrix(0.05,0,0,0.05,18.950000000000003,0)" xlink:href="#be"/><use transform="matrix(0.05,0,0,0.05,27.950000000000003,0)" xlink:href="#aQ"/><use transform="matrix(0.05,0,0,0.05,37.95,0)" xlink:href="#bd"/><use transform="matrix(0.05,0,0,0.05,47.95,0)" xlink:href="#aS"/></g><path d="M118-107v75H92v-75H18v-26h74v-75h26v75h74v26h-74" id="bi"/><use transform="matrix(0.05,0,0,0.05,0,0)" xlink:href="#bi" id="j"/><path d="M232-93c-1 65-40 97-104 97C67 4 28-28 28-90v-158h33c8 89-33 224 67 224 102 0 64-133 71-224h33v155" id="bj"/><path d="M185-189c-5-48-123-54-124 2 14 75 158 14 163 119 3 78-121 87-175 55-17-10-28-26-33-46l33-7c5 56 141 63 141-1 0-78-155-14-162-118-5-82 145-84 179-34 5 7 8 16 11 25" id="bk"/><g id="k"><use transform="matrix(0.05,0,0,0.05,0,0)" xlink:href="#bh"/><use transform="matrix(0.05,0,0,0.05,10.950000000000001,0)" xlink:href="#bj"/><use transform="matrix(0.05,0,0,0.05,23.900000000000002,0)" xlink:href="#bk"/><use transform="matrix(0.05,0,0,0.05,35.900000000000006,0)" xlink:href="#aP"/></g><g id="l"><use transform="matrix(0.05,0,0,0.05,0,0)" xlink:href="#bk"/><use transform="matrix(0.05,0,0,0.05,12,0)" xlink:href="#aQ"/><use transform="matrix(0.05,0,0,0.05,22,0)" xlink:href="#aO"/><use transform="matrix(0.05,0,0,0.05,25.950000000000003,0)" xlink:href="#aO"/></g><g id="m"><use transform="matrix(0.05,0,0,0.05,0,0)" xlink:href="#aN"/><use transform="matrix(0.05,0,0,0.05,10,0)" xlink:href="#bd"/></g><path d="M103-251c84 0 111 97 45 133-19 10-37 24-39 52H78c0-63 77-55 77-114 0-30-21-42-52-43-32 0-53 17-56 46l-32-2c7-45 34-72 88-72zM77 0v-35h34V0H77" id="bl"/><g id="n"><use transform="matrix(0.05,0,0,0.05,0,0)" xlink:href="#bj"/><use transform="matrix(0.05,0,0,0.05,12.950000000000001,0)" xlink:href="#bd"/><use transform="matrix(0.05,0,0,0.05,22.950000000000003,0)" xlink:href="#aT"/><use transform="matrix(0.05,0,0,0.05,26.900000000000002,0)" xlink:href="#aS"/><use transform="matrix(0.05,0,0,0.05,35.900000000000006,0)" xlink:href="#ba"/><use transform="matrix(0.05,0,0,0.05,48.85000000000001,0)" xlink:href="#aZ"/><use transform="matrix(0.05,0,0,0.05,58.85,0)" xlink:href="#aR"/><use transform="matrix(0.05,0,0,0.05,68.85000000000001,0)" xlink:href="#bl"/></g><path d="M137-103V0h-34v-103L8-248h37l75 118 75-118h37" id="bm"/><g id="o"><use transform="matrix(0.05,0,0,0.05,0,0)" xlink:href="#bm"/><use transform="matrix(0.05,0,0,0.05,10.35,0)" xlink:href="#aQ"/><use transform="matrix(0.05,0,0,0.05,20.35,0)" xlink:href="#aS"/></g><path d="M190 0L58-211 59 0H30v-248h39L202-35l-2-213h31V0h-41" id="bn"/><g id="p"><use transform="matrix(0.05,0,0,0.05,0,0)" xlink:href="#bn"/><use transform="matrix(0.05,0,0,0.05,12.950000000000001,0)" xlink:href="#aN"/></g><g id="q"><use transform="matrix(0.05,0,0,0.05,0,0)" xlink:href="#aR"/><use transform="matrix(0.05,0,0,0.05,10,0)" xlink:href="#aN"/><use transform="matrix(0.05,0,0,0.05,20,0)" xlink:href="#aN"/><use transform="matrix(0.05,0,0,0.05,30,0)" xlink:href="#aO"/></g><g id="r"><use transform="matrix(0.05,0,0,0.05,0,0)" xlink:href="#aU"/><use transform="matrix(0.05,0,0,0.05,5,0)" xlink:href="#aN"/><use transform="matrix(0.05,0,0,0.05,15,0)" xlink:href="#be"/><use transform="matrix(0.05,0,0,0.05,24,0)" xlink:href="#aQ"/><use transform="matrix(0.05,0,0,0.05,34,0)" xlink:href="#bd"/><use transform="matrix(0.05,0,0,0.05,44,0)" xlink:href="#aS"/></g><path d="M179-190L93 31C79 59 56 82 12 73V49c39 6 53-20 64-50L1-190h34L92-34l54-156h33" id="bo"/><g id="s"><use transform="matrix(0.05,0,0,0.05,0,0)" xlink:href="#aP"/><use transform="matrix(0.05,0,0,0.05,12.950000000000001,0)" xlink:href="#aQ"/><use transform="matrix(0.05,0,0,0.05,22.950000000000003,0)" xlink:href="#aR"/><use transform="matrix(0.05,0,0,0.05,32.95,0)" xlink:href="#aO"/><use transform="matrix(0.05,0,0,0.05,36.900000000000006,0)" xlink:href="#aN"/><use transform="matrix(0.05,0,0,0.05,46.900000000000006,0)" xlink:href="#bo"/></g><g id="t"><use transform="matrix(0.05,0,0,0.05,0,0)" xlink:href="#bh"/><use transform="matrix(0.05,0,0,0.05,8.950000000000001,0)" xlink:href="#aN"/><use transform="matrix(0.05,0,0,0.05,18.950000000000003,0)" xlink:href="#be"/><use transform="matrix(0.05,0,0,0.05,27.950000000000003,0)" xlink:href="#aQ"/><use transform="matrix(0.05,0,0,0.05,37.95,0)" xlink:href="#bd"/></g><path d="M234-2c-28 10-62 0-77-18C117 19 8 12 13-65c3-43 29-61 60-76-25-40-17-114 47-108 35 3 59 15 59 50 0 44-40 53-71 69 14 26 32 50 51 72 14-21 24-43 30-72l26 8c-9 33-21 57-38 82 13 13 33 22 57 15v23zM97-151c25-10 52-18 56-48-1-18-13-29-33-29-42 0-39 50-23 77zM42-66c-3 51 71 58 98 28-20-24-41-51-56-80-23 10-40 24-42 52" id="bp"/><use transform="matrix(0.05,0,0,0.05,0,0)" xlink:href="#bp" id="u"/><path d="M177-190C167-65 218 103 67 71c-23-6-38-20-44-43l32-5c15 47 100 32 89-28v-30C133-14 115 1 83 1 29 1 15-40 15-95c0-56 16-97 71-98 29-1 48 16 59 35 1-10 0-23 2-32h30zM94-22c36 0 50-32 50-73 0-42-14-75-50-75-39 0-46 34-46 75s6 73 46 73" id="bq"/><g id="v"><use transform="matrix(0.05,0,0,0.05,0,0)" xlink:href="#bk"/><use transform="matrix(0.05,0,0,0.05,12,0)" xlink:href="#aT"/><use transform="matrix(0.05,0,0,0.05,15.949999999999998,0)" xlink:href="#bq"/><use transform="matrix(0.05,0,0,0.05,25.950000000000003,0)" xlink:href="#bd"/></g><g id="w"><use transform="matrix(0.05,0,0,0.05,0,0)" xlink:href="#bg"/><use transform="matrix(0.05,0,0,0.05,10,0)" xlink:href="#aQ"/><use transform="matrix(0.05,0,0,0.05,20,0)" xlink:href="#bq"/><use transform="matrix(0.05,0,0,0.05,30,0)" xlink:href="#aZ"/><use transform="matrix(0.05,0,0,0.05,40,0)" xlink:href="#aO"/></g><path d="M205 0l-28-72H64L36 0H1l101-248h38L239 0h-34zm-38-99l-47-123c-12 45-31 82-46 123h93" id="br"/><path d="M210-169c-67 3-38 105-44 169h-31v-121c0-29-5-50-35-48C34-165 62-65 56 0H25l-1-190h30c1 10-1 24 2 32 10-44 99-50 107 0 11-21 27-35 58-36 85-2 47 119 55 194h-31v-121c0-29-5-49-35-48" id="bs"/><g id="x"><use transform="matrix(0.05,0,0,0.05,0,0)" xlink:href="#br"/><use transform="matrix(0.05,0,0,0.05,12,0)" xlink:href="#bq"/><use transform="matrix(0.05,0,0,0.05,22,0)" xlink:href="#aY"/><use transform="matrix(0.05,0,0,0.05,27.950000000000003,0)" xlink:href="#aQ"/><use transform="matrix(0.05,0,0,0.05,37.95,0)" xlink:href="#aQ"/><use transform="matrix(0.05,0,0,0.05,47.95,0)" xlink:href="#bs"/><use transform="matrix(0.05,0,0,0.05,62.900000000000006,0)" xlink:href="#aQ"/><use transform="matrix(0.05,0,0,0.05,72.9,0)" xlink:href="#bd"/><use transform="matrix(0.05,0,0,0.05,82.9,0)" xlink:href="#aU"/></g><path d="M30 0v-248h187v28H63v79h144v27H63v87h162V0H30" id="bt"/><path d="M141 0L90-78 38 0H4l68-98-65-92h35l48 74 47-74h35l-64 92 68 98h-35" id="bu"/><path d="M96-169c-40 0-48 33-48 73s9 75 48 75c24 0 41-14 43-38l32 2c-6 37-31 61-74 61-59 0-76-41-82-99-10-93 101-131 147-64 4 7 5 14 7 22l-32 3c-4-21-16-35-41-35" id="bv"/><g id="y"><use transform="matrix(0.05,0,0,0.05,0,0)" xlink:href="#bt"/><use transform="matrix(0.05,0,0,0.05,12,0)" xlink:href="#bu"/><use transform="matrix(0.05,0,0,0.05,21,0)" xlink:href="#bv"/><use transform="matrix(0.05,0,0,0.05,30,0)" xlink:href="#aW"/><use transform="matrix(0.05,0,0,0.05,40,0)" xlink:href="#aZ"/><use transform="matrix(0.05,0,0,0.05,50,0)" xlink:href="#bd"/><use transform="matrix(0.05,0,0,0.05,60,0)" xlink:href="#bq"/><use transform="matrix(0.05,0,0,0.05,70,0)" xlink:href="#aQ"/></g><g id="z"><use transform="matrix(0.05,0,0,0.05,0,0)" xlink:href="#bh"/><use transform="matrix(0.05,0,0,0.05,10.950000000000001,0)" xlink:href="#bj"/><use transform="matrix(0.05,0,0,0.05,23.900000000000002,0)" xlink:href="#bk"/><use transform="matrix(0.05,0,0,0.05,35.900000000000006,0)" xlink:href="#aP"/></g><g id="A"><use transform="matrix(0.05,0,0,0.05,0,0)" xlink:href="#aM"/><use transform="matrix(0.05,0,0,0.05,12,0)" xlink:href="#aN"/><use transform="matrix(0.05,0,0,0.05,22,0)" xlink:href="#aN"/><use transform="matrix(0.05,0,0,0.05,32,0)" xlink:href="#aO"/></g><g id="B"><use transform="matrix(0.05,0,0,0.05,0,0)" xlink:href="#bh"/><use transform="matrix(0.05,0,0,0.05,8.950000000000001,0)" xlink:href="#aN"/><use transform="matrix(0.05,0,0,0.05,18.950000000000003,0)" xlink:href="#be"/><use transform="matrix(0.05,0,0,0.05,27.950000000000003,0)" xlink:href="#aQ"/><use transform="matrix(0.05,0,0,0.05,37.95,0)" xlink:href="#bd"/><use transform="matrix(0.05,0,0,0.05,47.95,0)" xlink:href="#aS"/></g><g id="C"><use transform="matrix(0.05,0,0,0.05,0,0)" xlink:href="#aM"/><use transform="matrix(0.05,0,0,0.05,12,0)" xlink:href="#aY"/><use transform="matrix(0.05,0,0,0.05,17.95,0)" xlink:href="#aQ"/><use transform="matrix(0.05,0,0,0.05,27.950000000000003,0)" xlink:href="#aX"/><use transform="matrix(0.05,0,0,0.05,37.95,0)" xlink:href="#aT"/><use transform="matrix(0.05,0,0,0.05,41.900000000000006,0)" xlink:href="#bv"/><use transform="matrix(0.05,0,0,0.05,50.900000000000006,0)" xlink:href="#aU"/><use transform="matrix(0.05,0,0,0.05,55.900000000000006,0)" xlink:href="#aT"/><use transform="matrix(0.05,0,0,0.05,59.85,0)" xlink:href="#aN"/><use transform="matrix(0.05,0,0,0.05,69.85000000000001,0)" xlink:href="#bd"/></g><path d="M240 0l2-218c-23 76-54 145-80 218h-23L58-218 59 0H30v-248h44l77 211c21-75 51-140 76-211h43V0h-30" id="bw"/><g id="D"><use transform="matrix(0.05,0,0,0.05,0,0)" xlink:href="#bw"/><use transform="matrix(0.05,0,0,0.05,14.950000000000001,0)" xlink:href="#aZ"/><use transform="matrix(0.05,0,0,0.05,24.950000000000003,0)" xlink:href="#aY"/><use transform="matrix(0.05,0,0,0.05,30.900000000000002,0)" xlink:href="#be"/><use transform="matrix(0.05,0,0,0.05,39.900000000000006,0)" xlink:href="#aQ"/><use transform="matrix(0.05,0,0,0.05,49.900000000000006,0)" xlink:href="#aU"/></g><g id="E"><use transform="matrix(0.05,0,0,0.05,0,0)" xlink:href="#aY"/><use transform="matrix(0.05,0,0,0.05,5.95,0)" xlink:href="#aQ"/><use transform="matrix(0.05,0,0,0.05,15.949999999999998,0)" xlink:href="#bq"/><use transform="matrix(0.05,0,0,0.05,25.950000000000003,0)" xlink:href="#aT"/><use transform="matrix(0.05,0,0,0.05,29.899999999999995,0)" xlink:href="#aS"/><use transform="matrix(0.05,0,0,0.05,38.9,0)" xlink:href="#aU"/><use transform="matrix(0.05,0,0,0.05,43.9,0)" xlink:href="#aQ"/><use transform="matrix(0.05,0,0,0.05,53.900000000000006,0)" xlink:href="#aY"/></g><g id="F"><use transform="matrix(0.05,0,0,0.05,0,0)" xlink:href="#ba"/><use transform="matrix(0.05,0,0,0.05,12.950000000000001,0)" xlink:href="#aT"/><use transform="matrix(0.05,0,0,0.05,16.900000000000002,0)" xlink:href="#aU"/><use transform="matrix(0.05,0,0,0.05,21.900000000000002,0)" xlink:href="#aW"/></g><g id="G"><use transform="matrix(0.05,0,0,0.05,0,0)" xlink:href="#aR"/><use transform="matrix(0.05,0,0,0.05,10,0)" xlink:href="#aY"/><use transform="matrix(0.05,0,0,0.05,15.949999999999998,0)" xlink:href="#aQ"/><use transform="matrix(0.05,0,0,0.05,25.950000000000003,0)" xlink:href="#aX"/><use transform="matrix(0.05,0,0,0.05,35.95,0)" xlink:href="#aT"/><use transform="matrix(0.05,0,0,0.05,39.900000000000006,0)" xlink:href="#bv"/><use transform="matrix(0.05,0,0,0.05,48.900000000000006,0)" xlink:href="#aU"/><use transform="matrix(0.05,0,0,0.05,53.900000000000006,0)" xlink:href="#aT"/><use transform="matrix(0.05,0,0,0.05,57.85,0)" xlink:href="#aN"/><use transform="matrix(0.05,0,0,0.05,67.85000000000001,0)" xlink:href="#bd"/></g><g id="H"><use transform="matrix(0.05,0,0,0.05,0,0)" xlink:href="#bs"/><use transform="matrix(0.05,0,0,0.05,14.950000000000001,0)" xlink:href="#aZ"/><use transform="matrix(0.05,0,0,0.05,24.950000000000003,0)" xlink:href="#aY"/><use transform="matrix(0.05,0,0,0.05,30.900000000000002,0)" xlink:href="#be"/><use transform="matrix(0.05,0,0,0.05,39.900000000000006,0)" xlink:href="#aQ"/><use transform="matrix(0.05,0,0,0.05,49.900000000000006,0)" xlink:href="#aU"/></g><path d="M108 0H70L1-190h34L89-25l56-165h34" id="bx"/><g id="I"><use transform="matrix(0.05,0,0,0.05,0,0)" xlink:href="#bx"/><use transform="matrix(0.05,0,0,0.05,9,0)" xlink:href="#aN"/><use transform="matrix(0.05,0,0,0.05,19,0)" xlink:href="#aU"/><use transform="matrix(0.05,0,0,0.05,24,0)" xlink:href="#aQ"/></g><path d="M137 0h-34L2-248h35l83 218 83-218h36" id="by"/><g id="J"><use transform="matrix(0.05,0,0,0.05,0,0)" xlink:href="#by"/><use transform="matrix(0.05,0,0,0.05,11,0)" xlink:href="#aN"/><use transform="matrix(0.05,0,0,0.05,21,0)" xlink:href="#aU"/><use transform="matrix(0.05,0,0,0.05,26,0)" xlink:href="#aQ"/></g><g id="K"><use transform="matrix(0.05,0,0,0.05,0,0)" xlink:href="#bm"/><use transform="matrix(0.05,0,0,0.05,12,0)" xlink:href="#bt"/><use transform="matrix(0.05,0,0,0.05,24,0)" xlink:href="#bk"/></g><g id="L"><use transform="matrix(0.05,0,0,0.05,0,0)" xlink:href="#aN"/><use transform="matrix(0.05,0,0,0.05,10,0)" xlink:href="#aY"/></g><path d="M140-251c81 0 123 46 123 126C263-46 219 4 140 4 59 4 17-45 17-125s42-126 123-126zm0 227c63 0 89-41 89-101s-29-99-89-99c-61 0-89 39-89 99S79-25 140-24" id="bz"/><g id="M"><use transform="matrix(0.05,0,0,0.05,0,0)" xlink:href="#bn"/><use transform="matrix(0.05,0,0,0.05,12.950000000000001,0)" xlink:href="#bz"/></g><path d="M115-194c53 0 69 39 70 98 0 66-23 100-70 100C84 3 66-7 56-30L54 0H23l1-261h32v101c10-23 28-34 59-34zm-8 174c40 0 45-34 45-75 0-40-5-75-45-74-42 0-51 32-51 76 0 43 10 73 51 73" id="bA"/><g id="N"><use transform="matrix(0.05,0,0,0.05,0,0)" xlink:href="#bA"/><use transform="matrix(0.05,0,0,0.05,10,0)" xlink:href="#bo"/></g><g id="O"><use transform="matrix(0.05,0,0,0.05,0,0)" xlink:href="#aX"/><use transform="matrix(0.05,0,0,0.05,10,0)" xlink:href="#aQ"/><use transform="matrix(0.05,0,0,0.05,20,0)" xlink:href="#aR"/><use transform="matrix(0.05,0,0,0.05,30,0)" xlink:href="#aN"/><use transform="matrix(0.05,0,0,0.05,40,0)" xlink:href="#aS"/><use transform="matrix(0.05,0,0,0.05,49,0)" xlink:href="#aT"/><use transform="matrix(0.05,0,0,0.05,52.95,0)" xlink:href="#aU"/><use transform="matrix(0.05,0,0,0.05,57.95,0)" xlink:href="#aT"/><use transform="matrix(0.05,0,0,0.05,61.900000000000006,0)" xlink:href="#bd"/><use transform="matrix(0.05,0,0,0.05,71.9,0)" xlink:href="#bq"/></g><path d="M233-177c-1 41-23 64-60 70L243 0h-38l-65-103H63V0H30v-248c88 3 205-21 203 71zM63-129c60-2 137 13 137-47 0-61-80-42-137-45v92" id="bB"/><g id="P"><use transform="matrix(0.05,0,0,0.05,0,0)" xlink:href="#bh"/><use transform="matrix(0.05,0,0,0.05,10.950000000000001,0)" xlink:href="#bB"/><use transform="matrix(0.05,0,0,0.05,23.900000000000002,0)" xlink:href="#bj"/></g><g id="Q"><use transform="matrix(0.05,0,0,0.05,0,0)" xlink:href="#aT"/><use transform="matrix(0.05,0,0,0.05,3.95,0)" xlink:href="#bd"/><use transform="matrix(0.05,0,0,0.05,13.949999999999998,0)" xlink:href="#aU"/><use transform="matrix(0.05,0,0,0.05,18.95,0)" xlink:href="#aN"/></g><g id="R"><use transform="matrix(0.05,0,0,0.05,0,0)" xlink:href="#aR"/><use transform="matrix(0.05,0,0,0.05,10,0)" xlink:href="#aY"/><use transform="matrix(0.05,0,0,0.05,15.949999999999998,0)" xlink:href="#aQ"/><use transform="matrix(0.05,0,0,0.05,25.950000000000003,0)" xlink:href="#aX"/><use transform="matrix(0.05,0,0,0.05,35.95,0)" xlink:href="#aT"/><use transform="matrix(0.05,0,0,0.05,39.900000000000006,0)" xlink:href="#bv"/><use transform="matrix(0.05,0,0,0.05,48.900000000000006,0)" xlink:href="#aU"/><use transform="matrix(0.05,0,0,0.05,53.900000000000006,0)" xlink:href="#aT"/><use transform="matrix(0.05,0,0,0.05,57.85,0)" xlink:href="#aN"/><use transform="matrix(0.05,0,0,0.05,67.85000000000001,0)" xlink:href="#bd"/></g><g id="S"><use transform="matrix(0.05,0,0,0.05,0,0)" xlink:href="#bs"/><use transform="matrix(0.05,0,0,0.05,14.950000000000001,0)" xlink:href="#aZ"/><use transform="matrix(0.05,0,0,0.05,24.950000000000003,0)" xlink:href="#aY"/><use transform="matrix(0.05,0,0,0.05,30.900000000000002,0)" xlink:href="#be"/><use transform="matrix(0.05,0,0,0.05,39.900000000000006,0)" xlink:href="#aQ"/><use transform="matrix(0.05,0,0,0.05,49.900000000000006,0)" xlink:href="#aU"/></g><g id="T"><use transform="matrix(0.05,0,0,0.05,0,0)" xlink:href="#bv"/><use transform="matrix(0.05,0,0,0.05,9,0)" xlink:href="#aN"/><use transform="matrix(0.05,0,0,0.05,19,0)" xlink:href="#bd"/><use transform="matrix(0.05,0,0,0.05,29,0)" xlink:href="#aU"/><use transform="matrix(0.05,0,0,0.05,34,0)" xlink:href="#aY"/><use transform="matrix(0.05,0,0,0.05,39.95,0)" xlink:href="#aZ"/><use transform="matrix(0.05,0,0,0.05,49.95,0)" xlink:href="#bv"/><use transform="matrix(0.05,0,0,0.05,58.95,0)" xlink:href="#aU"/></g><g id="U"><use transform="matrix(0.05,0,0,0.05,0,0)" xlink:href="#bh"/><use transform="matrix(0.05,0,0,0.05,8.950000000000001,0)" xlink:href="#aN"/><use transform="matrix(0.05,0,0,0.05,18.950000000000003,0)" xlink:href="#be"/><use transform="matrix(0.05,0,0,0.05,27.950000000000003,0)" xlink:href="#aQ"/><use transform="matrix(0.05,0,0,0.05,37.95,0)" xlink:href="#bd"/><use transform="matrix(0.05,0,0,0.05,47.95,0)" xlink:href="#aS"/><use transform="matrix(0.05,0,0,0.05,56.95,0)" xlink:href="#bl"/></g><g id="V"><use transform="matrix(0.05,0,0,0.05,0,0)" xlink:href="#bg"/><use transform="matrix(0.05,0,0,0.05,10,0)" xlink:href="#aN"/><use transform="matrix(0.05,0,0,0.05,20,0)" xlink:href="#aZ"/><use transform="matrix(0.05,0,0,0.05,30,0)" xlink:href="#bd"/></g><path d="M63-220v92h138v28H63V0H30v-248h175v28H63" id="bC"/><g id="W"><use transform="matrix(0.05,0,0,0.05,0,0)" xlink:href="#bC"/><use transform="matrix(0.05,0,0,0.05,10.950000000000001,0)" xlink:href="#bc"/><use transform="matrix(0.05,0,0,0.05,20.950000000000003,0)" xlink:href="#bd"/><use transform="matrix(0.05,0,0,0.05,30.950000000000003,0)" xlink:href="#aX"/><use transform="matrix(0.05,0,0,0.05,40.95,0)" xlink:href="#aQ"/><use transform="matrix(0.05,0,0,0.05,50.95,0)" xlink:href="#aX"/></g><g id="X"><use transform="matrix(0.05,0,0,0.05,0,0)" xlink:href="#br"/><use transform="matrix(0.05,0,0,0.05,12,0)" xlink:href="#bf"/><use transform="matrix(0.05,0,0,0.05,17,0)" xlink:href="#aU"/><use transform="matrix(0.05,0,0,0.05,22,0)" xlink:href="#aQ"/><use transform="matrix(0.05,0,0,0.05,32,0)" xlink:href="#aY"/></g><path d="M64 0c3-98 48-159 88-221H18v-27h164v26C143-157 98-101 97 0H64" id="bD"/><use transform="matrix(0.05,0,0,0.05,0,0)" xlink:href="#bD" id="Y"/><g id="Z"><use transform="matrix(0.05,0,0,0.05,0,0)" xlink:href="#aP"/><use transform="matrix(0.05,0,0,0.05,12.950000000000001,0)" xlink:href="#aZ"/><use transform="matrix(0.05,0,0,0.05,22.950000000000003,0)" xlink:href="#bo"/><use transform="matrix(0.05,0,0,0.05,31.950000000000003,0)" xlink:href="#aS"/></g><g id="aa"><use transform="matrix(0.05,0,0,0.05,0,0)" xlink:href="#bg"/><use transform="matrix(0.05,0,0,0.05,10,0)" xlink:href="#aN"/><use transform="matrix(0.05,0,0,0.05,20,0)" xlink:href="#bv"/><use transform="matrix(0.05,0,0,0.05,29,0)" xlink:href="#be"/></g><g id="ab"><use transform="matrix(0.05,0,0,0.05,0,0)" xlink:href="#bf"/><use transform="matrix(0.05,0,0,0.05,5,0)" xlink:href="#aN"/><use transform="matrix(0.05,0,0,0.05,15,0)" xlink:href="#aY"/></g><g id="ac"><use transform="matrix(0.05,0,0,0.05,0,0)" xlink:href="#aO"/><use transform="matrix(0.05,0,0,0.05,3.95,0)" xlink:href="#aN"/><use transform="matrix(0.05,0,0,0.05,13.949999999999998,0)" xlink:href="#aZ"/><use transform="matrix(0.05,0,0,0.05,23.95,0)" xlink:href="#bd"/></g><g id="ad"><use transform="matrix(0.05,0,0,0.05,0,0)" xlink:href="#aU"/><use transform="matrix(0.05,0,0,0.05,5,0)" xlink:href="#aQ"/><use transform="matrix(0.05,0,0,0.05,15,0)" xlink:href="#aY"/><use transform="matrix(0.05,0,0,0.05,20.95,0)" xlink:href="#bs"/></g><g id="ae"><use transform="matrix(0.05,0,0,0.05,0,0)" xlink:href="#bh"/><use transform="matrix(0.05,0,0,0.05,8.950000000000001,0)" xlink:href="#aQ"/><use transform="matrix(0.05,0,0,0.05,18.950000000000003,0)" xlink:href="#aY"/><use transform="matrix(0.05,0,0,0.05,24.900000000000002,0)" xlink:href="#bs"/></g><g id="af"><use transform="matrix(0.05,0,0,0.05,0,0)" xlink:href="#aQ"/><use transform="matrix(0.05,0,0,0.05,10,0)" xlink:href="#bu"/><use transform="matrix(0.05,0,0,0.05,19,0)" xlink:href="#aR"/><use transform="matrix(0.05,0,0,0.05,29,0)" xlink:href="#aT"/><use transform="matrix(0.05,0,0,0.05,32.95,0)" xlink:href="#aY"/><use transform="matrix(0.05,0,0,0.05,38.900000000000006,0)" xlink:href="#aQ"/><use transform="matrix(0.05,0,0,0.05,48.900000000000006,0)" xlink:href="#aS"/></g><g id="ag"><use transform="matrix(0.05,0,0,0.05,0,0)" xlink:href="#bg"/><use transform="matrix(0.05,0,0,0.05,10,0)" xlink:href="#aN"/><use transform="matrix(0.05,0,0,0.05,20,0)" xlink:href="#aZ"/><use transform="matrix(0.05,0,0,0.05,30,0)" xlink:href="#bd"/></g><g id="ah"><use transform="matrix(0.05,0,0,0.05,0,0)" xlink:href="#aP"/><use transform="matrix(0.05,0,0,0.05,12.950000000000001,0)" xlink:href="#aQ"/><use transform="matrix(0.05,0,0,0.05,22.950000000000003,0)" xlink:href="#bf"/><use transform="matrix(0.05,0,0,0.05,27.950000000000003,0)" xlink:href="#aZ"/><use transform="matrix(0.05,0,0,0.05,37.95,0)" xlink:href="#bc"/><use transform="matrix(0.05,0,0,0.05,47.95,0)" xlink:href="#aO"/><use transform="matrix(0.05,0,0,0.05,51.900000000000006,0)" xlink:href="#aU"/><use transform="matrix(0.05,0,0,0.05,56.900000000000006,0)" xlink:href="#aS"/></g><g id="ai"><use transform="matrix(0.05,0,0,0.05,0,0)" xlink:href="#aM"/><use transform="matrix(0.05,0,0,0.05,12,0)" xlink:href="#aZ"/><use transform="matrix(0.05,0,0,0.05,22,0)" xlink:href="#bo"/></g><g id="aj"><use transform="matrix(0.05,0,0,0.05,0,0)" xlink:href="#bh"/><use transform="matrix(0.05,0,0,0.05,10.950000000000001,0)" xlink:href="#bB"/><use transform="matrix(0.05,0,0,0.05,23.900000000000002,0)" xlink:href="#bj"/></g><g id="ak"><use transform="matrix(0.05,0,0,0.05,0,0)" xlink:href="#aY"/><use transform="matrix(0.05,0,0,0.05,5.95,0)" xlink:href="#aQ"/><use transform="matrix(0.05,0,0,0.05,15.949999999999998,0)" xlink:href="#ba"/><use transform="matrix(0.05,0,0,0.05,28.899999999999995,0)" xlink:href="#aZ"/><use transform="matrix(0.05,0,0,0.05,38.9,0)" xlink:href="#aY"/><use transform="matrix(0.05,0,0,0.05,44.85,0)" xlink:href="#aX"/></g><g id="al"><use transform="matrix(0.05,0,0,0.05,0,0)" xlink:href="#aU"/><use transform="matrix(0.05,0,0,0.05,5,0)" xlink:href="#aN"/></g><g id="am"><use transform="matrix(0.05,0,0,0.05,0,0)" xlink:href="#bn"/><use transform="matrix(0.05,0,0,0.05,12.950000000000001,0)" xlink:href="#bz"/></g><g id="an"><use transform="matrix(0.05,0,0,0.05,0,0)" xlink:href="#aS"/><use transform="matrix(0.05,0,0,0.05,9,0)" xlink:href="#aU"/><use transform="matrix(0.05,0,0,0.05,14,0)" xlink:href="#aZ"/><use transform="matrix(0.05,0,0,0.05,24,0)" xlink:href="#be"/><use transform="matrix(0.05,0,0,0.05,33,0)" xlink:href="#aQ"/><use transform="matrix(0.05,0,0,0.05,43,0)" xlink:href="#aY"/><use transform="matrix(0.05,0,0,0.05,48.95,0)" xlink:href="#aS"/></g><g id="ao"><use transform="matrix(0.05,0,0,0.05,0,0)" xlink:href="#bb"/><use transform="matrix(0.05,0,0,0.05,12,0)" xlink:href="#bc"/><use transform="matrix(0.05,0,0,0.05,22,0)" xlink:href="#aY"/><use transform="matrix(0.05,0,0,0.05,27.950000000000003,0)" xlink:href="#bd"/></g><g id="ap"><use transform="matrix(0.05,0,0,0.05,0,0)" xlink:href="#bm"/><use transform="matrix(0.05,0,0,0.05,12,0)" xlink:href="#bt"/><use transform="matrix(0.05,0,0,0.05,24,0)" xlink:href="#bk"/></g><g id="aq"><use transform="matrix(0.05,0,0,0.05,0,0)" xlink:href="#aS"/><use transform="matrix(0.05,0,0,0.05,9,0)" xlink:href="#aU"/><use transform="matrix(0.05,0,0,0.05,14,0)" xlink:href="#aZ"/><use transform="matrix(0.05,0,0,0.05,24,0)" xlink:href="#be"/><use transform="matrix(0.05,0,0,0.05,33,0)" xlink:href="#aQ"/><use transform="matrix(0.05,0,0,0.05,43,0)" xlink:href="#aY"/><use transform="matrix(0.05,0,0,0.05,48.95,0)" xlink:href="#aS"/></g><g id="ar"><use transform="matrix(0.05,0,0,0.05,0,0)" xlink:href="#aZ"/><use transform="matrix(0.05,0,0,0.05,10,0)" xlink:href="#bd"/><use transform="matrix(0.05,0,0,0.05,20,0)" xlink:href="#aX"/></g><g id="as"><use transform="matrix(0.05,0,0,0.05,0,0)" xlink:href="#aY"/><use transform="matrix(0.05,0,0,0.05,5.95,0)" xlink:href="#aQ"/><use transform="matrix(0.05,0,0,0.05,15.949999999999998,0)" xlink:href="#aU"/><use transform="matrix(0.05,0,0,0.05,20.95,0)" xlink:href="#bc"/><use transform="matrix(0.05,0,0,0.05,30.950000000000003,0)" xlink:href="#aY"/><use transform="matrix(0.05,0,0,0.05,36.9,0)" xlink:href="#bd"/></g><g id="at"><use transform="matrix(0.05,0,0,0.05,0,0)" xlink:href="#aU"/><use transform="matrix(0.05,0,0,0.05,5,0)" xlink:href="#aN"/></g><g id="au"><use transform="matrix(0.05,0,0,0.05,0,0)" xlink:href="#bn"/><use transform="matrix(0.05,0,0,0.05,12.950000000000001,0)" xlink:href="#bz"/></g><g id="av"><use transform="matrix(0.05,0,0,0.05,0,0)" xlink:href="#bh"/><use transform="matrix(0.05,0,0,0.05,10.950000000000001,0)" xlink:href="#bB"/><use transform="matrix(0.05,0,0,0.05,23.900000000000002,0)" xlink:href="#bj"/></g><g id="aw"><use transform="matrix(0.05,0,0,0.05,0,0)" xlink:href="#by"/><use transform="matrix(0.05,0,0,0.05,11,0)" xlink:href="#aN"/><use transform="matrix(0.05,0,0,0.05,21,0)" xlink:href="#aU"/><use transform="matrix(0.05,0,0,0.05,26,0)" xlink:href="#aQ"/><use transform="matrix(0.05,0,0,0.05,36,0)" xlink:href="#aY"/><use transform="matrix(0.05,0,0,0.05,41.95,0)" xlink:href="#aS"/></g><g id="ax"><use transform="matrix(0.05,0,0,0.05,0,0)" xlink:href="#bv"/><use transform="matrix(0.05,0,0,0.05,9,0)" xlink:href="#aZ"/><use transform="matrix(0.05,0,0,0.05,19,0)" xlink:href="#bd"/></g><g id="ay"><use transform="matrix(0.05,0,0,0.05,0,0)" xlink:href="#ba"/><use transform="matrix(0.05,0,0,0.05,12.950000000000001,0)" xlink:href="#aT"/><use transform="matrix(0.05,0,0,0.05,16.900000000000002,0)" xlink:href="#aU"/><use transform="matrix(0.05,0,0,0.05,21.900000000000002,0)" xlink:href="#aW"/><use transform="matrix(0.05,0,0,0.05,31.900000000000002,0)" xlink:href="#aX"/><use transform="matrix(0.05,0,0,0.05,41.900000000000006,0)" xlink:href="#aY"/><use transform="matrix(0.05,0,0,0.05,47.85000000000001,0)" xlink:href="#aZ"/><use transform="matrix(0.05,0,0,0.05,57.85,0)" xlink:href="#ba"/></g><g id="az"><use transform="matrix(0.05,0,0,0.05,0,0)" xlink:href="#aS"/><use transform="matrix(0.05,0,0,0.05,9,0)" xlink:href="#aU"/><use transform="matrix(0.05,0,0,0.05,14,0)" xlink:href="#aZ"/><use transform="matrix(0.05,0,0,0.05,24,0)" xlink:href="#be"/><use transform="matrix(0.05,0,0,0.05,33,0)" xlink:href="#aQ"/></g><g id="aA"><use transform="matrix(0.05,0,0,0.05,0,0)" xlink:href="#aZ"/><use transform="matrix(0.05,0,0,0.05,10,0)" xlink:href="#bd"/><use transform="matrix(0.05,0,0,0.05,20,0)" xlink:href="#bo"/></g><g id="aB"><use transform="matrix(0.05,0,0,0.05,0,0)" xlink:href="#aU"/><use transform="matrix(0.05,0,0,0.05,5,0)" xlink:href="#aT"/><use transform="matrix(0.05,0,0,0.05,8.95,0)" xlink:href="#bs"/><use transform="matrix(0.05,0,0,0.05,23.9,0)" xlink:href="#aQ"/></g><g id="aC"><use transform="matrix(0.05,0,0,0.05,0,0)" xlink:href="#bA"/><use transform="matrix(0.05,0,0,0.05,10,0)" xlink:href="#aQ"/><use transform="matrix(0.05,0,0,0.05,20,0)" xlink:href="#bf"/><use transform="matrix(0.05,0,0,0.05,25,0)" xlink:href="#aN"/><use transform="matrix(0.05,0,0,0.05,35,0)" xlink:href="#aY"/><use transform="matrix(0.05,0,0,0.05,40.95,0)" xlink:href="#aQ"/></g><g id="aD"><use transform="matrix(0.05,0,0,0.05,0,0)" xlink:href="#bg"/><use transform="matrix(0.05,0,0,0.05,10,0)" xlink:href="#aN"/><use transform="matrix(0.05,0,0,0.05,20,0)" xlink:href="#aZ"/><use transform="matrix(0.05,0,0,0.05,30,0)" xlink:href="#bd"/></g><g id="aE"><use transform="matrix(0.05,0,0,0.05,0,0)" xlink:href="#bf"/><use transform="matrix(0.05,0,0,0.05,5,0)" xlink:href="#bc"/><use transform="matrix(0.05,0,0,0.05,15,0)" xlink:href="#bd"/><use transform="matrix(0.05,0,0,0.05,25,0)" xlink:href="#aX"/><use transform="matrix(0.05,0,0,0.05,35,0)" xlink:href="#aQ"/><use transform="matrix(0.05,0,0,0.05,45,0)" xlink:href="#aX"/></g><g id="aF"><use transform="matrix(0.05,0,0,0.05,0,0)" xlink:href="#aV"/><use transform="matrix(0.05,0,0,0.05,16.3,0)" xlink:href="#aZ"/><use transform="matrix(0.05,0,0,0.05,26.3,0)" xlink:href="#aT"/><use transform="matrix(0.05,0,0,0.05,30.25,0)" xlink:href="#aU"/></g><g id="aG"><use transform="matrix(0.05,0,0,0.05,0,0)" xlink:href="#bc"/><use transform="matrix(0.05,0,0,0.05,10,0)" xlink:href="#bd"/><use transform="matrix(0.05,0,0,0.05,20,0)" xlink:href="#aU"/><use transform="matrix(0.05,0,0,0.05,25,0)" xlink:href="#aT"/><use transform="matrix(0.05,0,0,0.05,28.950000000000003,0)" xlink:href="#aO"/></g><path d="M68-38c1 34 0 65-14 84H32c9-13 17-26 17-46H33v-38h35" id="bE"/><g id="aH"><use transform="matrix(0.05,0,0,0.05,0,0)" xlink:href="#bs"/><use transform="matrix(0.05,0,0,0.05,14.950000000000001,0)" xlink:href="#aZ"/><use transform="matrix(0.05,0,0,0.05,24.950000000000003,0)" xlink:href="#aU"/><use transform="matrix(0.05,0,0,0.05,29.950000000000003,0)" xlink:href="#bc"/><use transform="matrix(0.05,0,0,0.05,39.95,0)" xlink:href="#aY"/><use transform="matrix(0.05,0,0,0.05,45.900000000000006,0)" xlink:href="#aT"/><use transform="matrix(0.05,0,0,0.05,49.85000000000001,0)" xlink:href="#aU"/><use transform="matrix(0.05,0,0,0.05,54.85,0)" xlink:href="#bo"/><use transform="matrix(0.05,0,0,0.05,62.5,0)" xlink:href="#bE"/></g><g id="aI"><use transform="matrix(0.05,0,0,0.05,0,0)" xlink:href="#bA"/><use transform="matrix(0.05,0,0,0.05,10,0)" xlink:href="#bc"/><use transform="matrix(0.05,0,0,0.05,20,0)" xlink:href="#aY"/><use transform="matrix(0.05,0,0,0.05,25.950000000000003,0)" xlink:href="#bd"/></g><g id="aJ"><use transform="matrix(0.05,0,0,0.05,0,0)" xlink:href="#bg"/><use transform="matrix(0.05,0,0,0.05,10,0)" xlink:href="#aN"/><use transform="matrix(0.05,0,0,0.05,20,0)" xlink:href="#aZ"/><use transform="matrix(0.05,0,0,0.05,30,0)" xlink:href="#bd"/><use transform="matrix(0.05,0,0,0.05,40,0)" xlink:href="#bh"/><use transform="matrix(0.05,0,0,0.05,48.95,0)" xlink:href="#aN"/><use transform="matrix(0.05,0,0,0.05,58.95,0)" xlink:href="#be"/><use transform="matrix(0.05,0,0,0.05,67.95,0)" xlink:href="#aQ"/><use transform="matrix(0.05,0,0,0.05,77.95,0)" xlink:href="#bd"/><use transform="matrix(0.05,0,0,0.05,87.95,0)" xlink:href="#aS"/></g><g id="aK"><use transform="matrix(0.05,0,0,0.05,0,0)" xlink:href="#bg"/><use transform="matrix(0.05,0,0,0.05,10,0)" xlink:href="#aN"/><use transform="matrix(0.05,0,0,0.05,20,0)" xlink:href="#aZ"/><use transform="matrix(0.05,0,0,0.05,30,0)" xlink:href="#bd"/></g><g id="aL"><use transform="matrix(0.05,0,0,0.05,0,0)" xlink:href="#bh"/><use transform="matrix(0.05,0,0,0.05,8.950000000000001,0)" xlink:href="#aN"/><use transform="matrix(0.05,0,0,0.05,18.950000000000003,0)" xlink:href="#be"/><use transform="matrix(0.05,0,0,0.05,27.950000000000003,0)" xlink:href="#aQ"/><use transform="matrix(0.05,0,0,0.05,37.95,0)" xlink:href="#bd"/><use transform="matrix(0.05,0,0,0.05,47.95,0)" xlink:href="#aS"/></g></defs></g></svg>